Hannah et Violetta forment un couple hors du commun : Mère insaisissable et fillette en quête d'amour maternel, artiste fantasque et modèle malgré elle. 
Lorsqu’Hannah demande à sa fille si elle veut être son modèle, tout bascule dans la vie de Violetta qui vivait jusque là avec sa tendre grand mère.
D’une enfance banale elle devient égérie du milieu branché parisien ..

Avec
Isabelle HUPPERT
Anamaria VARTOLOMEI
Georgetta LEAHU
Denis LAVANT

  
http://www.imdb.com/title/tt1896788/

Screenshoots:
 
http://img821.imageshack.us/img821/9127/bscap0002cu.jpg 
http://img801.imageshack.us/img801/541/bscap0003ww.jpg       
http://img29.imageshack.us/img29/5936/bscap0006hn.jpg 
http://img718.imageshack.us/img718/9423/bscap0007ti.jpg

Format : AVI
      Format/Info : Audio Video Interleave
      File size : 1.37 GiB
      Duration : 1h 42mn
      Overall bit rate : 1 911 Kbps
      Writing application : VirtualDubMod 1.5.4.1 (build 2178/release)
      Writing library : VirtualDubMod build 2178/release
   Video #0
      ID : 0
      Format : MPEG-4 Visual
      Format profile : AdvancedSimple@L5
      Format settings, BVOP : Yes
      Format settings, QPel : No
      Format settings, GMC : No warppoints
      Format settings, Matrix : Custom
      Codec ID : XVID
      Codec ID/Hint : XviD
      Duration : 1h 42mn
      Bit rate : 1 456 Kbps
      Width : 720 pixels
      Height : 304 pixels
      Display aspect ratio : 2.35:1
      Frame rate : 25.000 fps
      Resolution : 24 bits
      Colorimetry : 4:2:0
      Scan type : Progressive
      Bits/(Pixel*Frame) : 0.266
      Stream size : 1.04 GiB (76%)
      Writing library : XviD 64
   Audio #1
      ID : 1
      Format : AC-3
      Format/Info : Audio Coding 3
      Codec ID : 2000
      Duration : 1h 42mn
      Bit rate mode : Constant
      Bit rate : 448 Kbps
      Channel(s) : 6 channels
      Channel positions : Front: L C R, Surround: L R, LFE
      Sampling rate : 48.0 KHz
      Stream size : 328 MiB (23%)
      Alignment : Split accross interleaves
      Interleave, duration : 96 ms (2.40 video frames)
      Interleave, preload duration : 96 ms